<?xml version="1.0" encoding="utf-8"?>
<!-- Generator: Adobe Illustrator 22.1.0, SVG Export Plug-In . SVG Version: 6.00 Build 0)  -->
<svg version="1.1" id="レイヤー_1" xmlns="http://www.w3.org/2000/svg" xmlns:xlink="http://www.w3.org/1999/xlink" x="0px"
	 y="0px" viewBox="0 0 234.2 38.8" style="enable-background:new 0 0 234.2 38.8;" xml:space="preserve">
<style type="text/css">
	.st0{enable-background:new    ;}
	.st1{fill:#4D4D4D;}
	.st2{fill:#0A8F9B;}
	.st3{fill:#B5969E;}
</style>
<title>アートボード 1</title>
<g class="st0">
	<path class="st1" d="M1,7.1c-0.3,0-0.4-0.2-0.4-0.4S0.7,6.2,1,6.2H7c0.3,0,0.4,0.2,0.4,0.4c0,0.2-0.1,0.4-0.4,0.4H1z"/>
	<path class="st1" d="M18.1,4.8c0-0.2,0.2-0.3,0.3-0.3c0.2,0,0.4,0.1,0.4,0.3c0,0,0,0,0,0.1c0,1-0.4,1.1-1.1,1.1
		c-0.8,0-0.8-0.3-0.8-1c0-0.3,0-0.6,0-0.8c0-0.2-0.2-0.2-0.3-0.2c-0.2,0-0.4,0-0.4,0.2c0,0.8-0.1,1.3-0.6,1.9
		c-0.1,0.1-0.2,0.1-0.3,0.1c-0.1,0-0.2-0.1-0.3-0.1c0,0,0,0,0,0c0,0.2-0.1,0.3-0.4,0.3c0,0.7,0,1.4,0,1.6c0,0.3,0,0.8,0,1
		c0,0,0,0,0,0c0,0.4-0.2,1-1,1c-0.3,0-0.6,0-0.6-0.4c0-0.2,0.1-0.4,0.3-0.4c0,0,0,0,0,0c0.1,0,0.2,0,0.3,0c0.2,0,0.3-0.1,0.3-0.4
		c0-0.4,0-1.4,0-2.4c-0.1,0-0.2,0-0.4,0l0,1.9c0,0.2-0.1,0.3-0.3,0.3c-0.1,0-0.3-0.1-0.3-0.3l0-1.8l-0.3,0c0,1.2-0.1,2.5-0.6,3.3
		c-0.1,0.2-0.2,0.2-0.4,0.2c-0.2,0-0.4-0.1-0.4-0.3c0,0,0-0.1,0-0.2c0.4-0.7,0.6-1.8,0.6-2.9c-0.1,0-0.1,0-0.2,0c0,0,0,0,0,0
		c-0.2,0-0.3-0.2-0.3-0.3c0-0.2,0.1-0.3,0.3-0.3c0.1,0,0.2,0,0.2,0c0-0.6,0-1.1,0-1.5c0,0,0,0,0,0c0-0.4,0.2-0.6,0.7-0.7H13
		c0-0.2,0.1-0.3,0.1-0.6c0-0.2,0.2-0.2,0.3-0.2c0.2,0,0.4,0.1,0.4,0.3c0,0.1-0.1,0.3-0.2,0.5H14c0.4,0,0.7,0.3,0.7,0.7v1.2l0,0
		c0,0,0,0,0,0c0.1,0,0.1,0,0.2,0.1c0,0,0,0,0,0c0-0.1,0-0.2,0.1-0.2c0.4-0.3,0.4-0.7,0.4-1.3c0-0.1,0-0.2,0-0.4c0,0,0,0,0,0
		c0-0.6,0.6-0.6,0.9-0.6c1.1,0,1.2,0,1.2,0.9c0,0.3,0,0.5,0,0.8c0,0,0,0.1,0,0.1c0,0.2,0.1,0.3,0.2,0.3C18.1,5.4,18.1,5.3,18.1,4.8
		C18.1,4.8,18.1,4.8,18.1,4.8L18.1,4.8z M14,4.7c0-0.2-0.2-0.2-0.5-0.2c-0.5,0-0.6,0-0.6,0.2c0,0.4,0,0.9,0,1.4
		c0.4,0,0.8-0.1,1.2-0.1C14,5.4,14,5,14,4.7z M13.3,5.6C13.2,5.4,13,5.3,13,5.2c-0.1,0-0.1-0.1-0.1-0.2c0-0.1,0.2-0.3,0.3-0.3
		c0.2,0,0.6,0.4,0.6,0.6c0,0.2-0.2,0.3-0.3,0.3C13.4,5.7,13.4,5.7,13.3,5.6z M14.8,10.2c-0.2,0-0.4-0.2-0.4-0.4
		c0-0.1,0.1-0.3,0.3-0.3c0.6-0.2,1-0.5,1.4-0.8c-0.5-0.5-0.8-1.1-0.8-1.3c0-0.2,0.2-0.3,0.3-0.3c0.1,0,0.2,0.1,0.3,0.2
		c0.1,0.3,0.3,0.6,0.6,0.9c0.4-0.4,0.6-1,0.6-1.2c0-0.1-0.1-0.1-0.2-0.1c-0.1,0-0.2,0-0.3,0c-0.4,0-0.9,0-1.4,0c0,0,0,0,0,0
		c-0.2,0-0.3-0.2-0.3-0.3c0-0.2,0.1-0.3,0.3-0.3c0.3,0,0.7,0,1,0c0.3,0,0.7,0,1,0c0.4,0,0.7,0.2,0.7,0.6c0,0.4-0.4,1.2-0.9,1.8
		C17.5,9,18,9.2,18.5,9.4c0.2,0.1,0.3,0.2,0.3,0.4c0,0.2-0.2,0.4-0.4,0.4c-0.5,0-1.6-0.8-1.7-1C15.8,9.9,15,10.2,14.8,10.2z"/>
	<path class="st1" d="M25,9.8c0,0.2-0.2,0.3-0.4,0.3c-0.2,0-0.4-0.1-0.4-0.3v0l0-2.6c-0.3,0.2-0.8,0.6-1,0.6s-0.4-0.2-0.4-0.4
		c0-0.1,0.1-0.2,0.2-0.3c1.4-0.8,2-2.1,2-2.1c0-0.1-0.1-0.1-0.2-0.1c0,0-0.1,0-0.1,0c-0.5,0-0.8,0-1.3,0h0c-0.2,0-0.4-0.2-0.4-0.3
		s0.1-0.3,0.4-0.3c0.2,0,0.5,0,0.7,0l0-0.8c0-0.2,0.2-0.4,0.4-0.4c0.2,0,0.4,0.1,0.4,0.4v0.8h0.3c0.5,0,0.7,0.2,0.7,0.5
		c0,0.4-0.6,1.3-1,1.7C24.9,7.8,25,9.8,25,9.8L25,9.8z M25.8,7.6c-0.2-0.2-0.4-0.4-0.6-0.6c-0.1,0-0.1-0.1-0.1-0.2
		c0-0.2,0.2-0.4,0.4-0.4c0.2,0,1,0.4,1,0.8c0,0.2-0.2,0.4-0.4,0.4C26,7.7,25.9,7.7,25.8,7.6z M25.7,9.8c-0.2,0-0.4-0.2-0.4-0.4
		c0-0.2,0.1-0.4,0.4-0.4l1.6,0l0-2.8l-1,0c-0.2,0-0.4-0.2-0.4-0.4c0-0.2,0.1-0.4,0.4-0.4h0l1,0v-2c0-0.2,0.2-0.4,0.4-0.4
		c0.2,0,0.4,0.1,0.4,0.4l0,2l1.2,0h0c0.2,0,0.4,0.2,0.4,0.4c0,0.2-0.1,0.4-0.4,0.4l-1.2,0v2.8l1.6,0c0.3,0,0.4,0.2,0.4,0.4
		c0,0.2-0.1,0.4-0.4,0.4H25.7z"/>
	<path class="st1" d="M39.8,9.9c-0.7,0-1.4,0-2.2,0c-0.7,0-1.5,0-2.2,0c-0.7,0-1-0.4-1.1-1c0-0.6,0-1.3,0-2.1c0-0.9,0-1.8,0-2.6
		c0-0.5,0.4-0.9,1-0.9c0.7,0,1.4,0,2.2,0c0.8,0,1.5,0,2.3,0c0.6,0,1,0.4,1,0.9c0,0.8,0,1.7,0,2.6c0,0.7,0,1.4,0,2
		C40.8,9.5,40.4,9.9,39.8,9.9z M40.1,6.6c0-0.7,0-1.4,0-2c0-0.5-0.2-0.5-0.6-0.5c-0.6,0-1.3,0-1.9,0c-0.7,0-1.3,0-1.8,0
		c-0.5,0-0.6,0.1-0.6,0.5c0,0.6,0,1.4,0,2.1c0,0.7,0,1.4,0,2c0,0.5,0.2,0.5,0.7,0.5c0.6,0,1.1,0,1.8,0c0.6,0,1.2,0,1.9,0
		c0.4,0,0.6-0.2,0.6-0.6C40.1,8,40.1,7.3,40.1,6.6z M38.1,5.9h-2.3c-0.2,0-0.3-0.2-0.3-0.3c0-0.2,0.1-0.3,0.3-0.3h2.3V4.6
		c0-0.2,0.2-0.3,0.4-0.3c0.2,0,0.4,0.1,0.4,0.3l0,0.6h0.7c0.2,0,0.3,0.2,0.3,0.3c0,0.2-0.1,0.3-0.3,0.3h-0.7l0,0.8l0,1.1
		c0,0,0,0,0,0c0,0.4-0.3,1-1.2,1c-0.4,0-0.9,0-0.9-0.4c0-0.2,0.1-0.4,0.4-0.4c0,0,0.1,0,0.1,0c0.2,0,0.3,0.1,0.4,0.1
		c0.3,0,0.5-0.1,0.5-0.4L38.1,5.9z M36.9,7.3c-0.2-0.3-0.5-0.5-0.7-0.6C36.1,6.7,36,6.6,36,6.5c0-0.2,0.2-0.3,0.4-0.3
		c0.2,0,1.2,0.4,1.2,0.9c0,0.2-0.2,0.4-0.4,0.4C37.1,7.5,37,7.4,36.9,7.3z"/>
	<path class="st1" d="M46.4,6.3c-0.3-0.2-0.5-0.3-0.9-0.4c-0.1,0-0.2-0.2-0.2-0.3c0-0.2,0.2-0.4,0.4-0.4C45.8,5.3,47,5.4,47,6
		c0,0.2-0.2,0.4-0.4,0.4C46.5,6.4,46.5,6.4,46.4,6.3z M45.9,10c-0.2,0-0.4-0.2-0.4-0.4c0-0.1,0-0.2,0.1-0.3C46,8.8,46.5,8,46.7,7.5
		c0.1-0.1,0.2-0.2,0.3-0.2c0.2,0,0.4,0.1,0.4,0.4c0,0.2-0.7,1.6-1.2,2.2C46.2,10,46,10,45.9,10z M46.8,4.6C46.5,4.3,46.3,4.2,46,4
		c-0.1-0.1-0.2-0.2-0.2-0.2c0-0.2,0.2-0.4,0.4-0.4c0.2,0,1.2,0.4,1.2,0.9c0,0.2-0.2,0.4-0.4,0.4C47,4.7,46.9,4.7,46.8,4.6z M49.9,7
		c-0.1,0.5-0.4,1.3-0.7,2c0.6-0.1,1.2-0.2,1.8-0.3c-0.2-0.2-0.3-0.4-0.5-0.6c-0.1-0.1-0.1-0.2-0.1-0.3c0-0.2,0.2-0.3,0.4-0.3
		c0.1,0,0.2,0,0.3,0.1c0.8,0.8,1.4,1.6,1.4,1.9c0,0.3-0.2,0.4-0.4,0.4c-0.1,0-0.3-0.1-0.4-0.3c-0.1-0.1-0.1-0.3-0.2-0.4
		c-1.7,0.4-3.5,0.6-3.7,0.6c-0.2,0-0.4-0.2-0.4-0.4c0-0.2,0.1-0.4,0.3-0.4c0.3,0,0.6,0,0.8-0.1c0.3-0.6,0.5-1.4,0.6-2h-1.4
		c-0.2,0-0.4-0.2-0.4-0.3c0-0.2,0.1-0.3,0.4-0.3l1.7,0l0-1.1l-1.2,0c-0.2,0-0.4-0.2-0.4-0.4c0-0.2,0.1-0.3,0.4-0.3l1.2,0V3.6
		c0-0.2,0.2-0.4,0.4-0.4c0.2,0,0.4,0.1,0.4,0.4v0.9l1.4,0c0.3,0,0.4,0.2,0.4,0.4c0,0.2-0.1,0.3-0.4,0.3l-1.4,0v1.1l1.9,0
		c0.3,0,0.4,0.2,0.4,0.3C52.3,6.8,52.2,7,52,7H49.9z"/>
	<path class="st1" d="M60.3,4.9C60.3,4.9,60.3,4.9,60.3,4.9c0.2,2,1.6,3.7,2.9,4.2c0.2,0.1,0.3,0.2,0.3,0.4c0,0.2-0.2,0.5-0.5,0.5
		c-0.7,0-2.4-1.5-3.1-3.3c-0.4,1.4-1.4,2.6-2.9,3.3c-0.1,0-0.2,0.1-0.2,0.1c-0.3,0-0.5-0.2-0.5-0.4c0-0.2,0.1-0.3,0.3-0.4
		c2.7-1.2,2.8-4,2.8-4.6c0-0.2,0-0.5,0-0.8c0,0,0,0,0,0c0-0.3,0.2-0.4,0.4-0.4c0.2,0,0.4,0.1,0.4,0.4C60.4,4.2,60.4,4.5,60.3,4.9
		L60.3,4.9z"/>
</g>
<g class="st0">
	<path class="st2" d="M78,12.9c0.3,0.3,0.4,0.7,0.4,1c0,0.7-0.5,1.2-1.1,1.2c-0.3,0-0.7-0.2-1-0.5c-0.8-0.9-2-1.9-2.7-2.4
		c-0.4-0.3-0.6-0.7-0.6-1c0-0.6,0.5-1.1,1.2-1.1c0.2,0,0.5,0.1,0.8,0.3C76,11.1,77.2,12.1,78,12.9z M79,19.4c0.6,0,1.1,0.4,1.1,1.2
		c0,0.2,0,0.3-0.1,0.5c-0.8,3-2.3,6.7-3.7,9.1c-0.3,0.5-0.8,0.8-1.2,0.8c-0.6,0-1.1-0.5-1.1-1.1c0-0.3,0.1-0.5,0.2-0.8
		c1.4-2.2,2.8-5.7,3.6-8.5C77.9,19.7,78.5,19.4,79,19.4z M80.2,5.1c0.3,0.3,0.4,0.7,0.4,1c0,0.7-0.5,1.2-1.2,1.2
		c-0.4,0-0.7-0.2-1-0.5c-0.7-0.9-1.8-1.9-2.4-2.4c-0.4-0.3-0.6-0.7-0.6-1c0-0.6,0.6-1.1,1.2-1.1c0.3,0,0.5,0.1,0.7,0.2
		C78.3,3.1,79.6,4.2,80.2,5.1z M102.3,11.7c0.7,0,1,0.5,1,1s-0.3,1-1,1h-5c1.5,2.6,3.4,4.5,5.7,6.2c0.5,0.4,0.7,0.8,0.7,1.2
		c0,0.6-0.5,1.2-1.2,1.2c-0.3,0-0.5-0.1-0.8-0.3c-2.7-2-5.1-5-6.7-8.3h-6c-1.5,3.2-3.6,6.1-6.2,8.3c-0.3,0.3-0.6,0.4-0.9,0.4
		c-0.6,0-1-0.4-1-1c0-0.3,0.2-0.7,0.6-1c2.1-1.8,3.9-4.3,5.1-6.7h-5.1c-0.6,0-1-0.5-1-1c0-0.5,0.3-1,0.9-1H87V8h-3.6
		c-0.6,0-0.9-0.5-0.9-1s0.3-1,0.9-1H87V2.5c0-0.7,0.6-1.1,1.2-1.1c0.6,0,1.2,0.4,1.2,1.1V6H94V2.5c0-0.7,0.6-1.1,1.2-1.1
		c0.6,0,1.2,0.4,1.2,1.1V6h4.4c0.7,0,1,0.5,1,1s-0.3,1-1,1h-4.4v3.7H102.3z M88.7,23.8c-0.7,0-1,0.2-1,0.8v2.9c0,1.1,0.5,1.4,4,1.4
		c5.3,0,6-0.5,6.3-3.2c0.1-0.7,0.6-1.1,1.2-1.1c0.6,0,1.3,0.5,1.2,1.4c-0.5,4.1-1.7,5-8.6,5c-5.5,0-6.4-0.6-6.4-3.1v-3.7
		c0-1.4,0.9-2.4,2.8-2.4h4.8c0.8,0,1.1-0.2,1.1-0.8v-1.2c0-0.6-0.3-0.8-1.1-0.8h-4.3c-0.6,0-0.9-0.5-0.9-1s0.3-1,0.9-1h4.8
		c1.9,0,2.9,1,2.9,2.4v2c0,1.4-1,2.4-2.9,2.4H88.7z M94,8h-4.7v3.7H94V8z"/>
</g>
<g class="st0">
	<path class="st2" d="M141.7,11.6c0.7,0,1,0.5,1,1c0,0.5-0.3,1-1,1h-21.6c-1.4,0-1.8,0.4-1.8,1.4v2.4c0,5.6-0.9,9.6-2.6,12.8
		c-0.3,0.6-0.8,0.8-1.3,0.8c-0.6,0-1.1-0.4-1.1-1c0-0.2,0.1-0.5,0.2-0.8c1.6-3.1,2.3-6.7,2.3-12.1v-2.5c0-2.2,0.8-3.2,3.7-3.2h11.1
		c0.8-1.3,1.4-2.7,1.9-4c0.2-0.6,0.7-0.8,1.2-0.8c0.6,0,1.2,0.4,1.2,1c0,0.2,0,0.3-0.1,0.5c-0.5,1-1.1,2.1-1.7,3.2H141.7z
		 M140.6,4.2c0.7,0,1,0.5,1,1.1s-0.3,1.1-1,1.1h-23.8c-0.6,0-1-0.5-1-1.1s0.3-1.1,1-1.1h10.8v-2c0-0.7,0.6-1.1,1.2-1.1
		c0.6,0,1.2,0.4,1.2,1.1v2H140.6z M130,15.8c0-0.7,0.6-1,1.1-1c0.6,0,1.1,0.3,1.1,1v2.6h7.8c0.6,0,1,0.5,1,1s-0.3,1-1,1h-7.8v3.1
		h5.9c0.6,0,1,0.5,1,1s-0.3,1-1,1h-5.9v3.3h9.6c0.7,0,1,0.5,1,1c0,0.5-0.3,1-1,1h-22c-0.7,0-1-0.5-1-1c0-0.5,0.3-1,1-1H130v-3.3
		h-5.5c-0.6,0-0.9-0.5-0.9-1s0.3-1,0.9-1h5.5v-3.1h-6c-0.7,1.3-1.5,2.6-2.4,3.7c-0.3,0.4-0.6,0.5-1,0.5c-0.6,0-1.1-0.4-1.1-1
		c0-0.2,0.1-0.5,0.3-0.8c1.5-2.1,2.7-4.4,3.5-6.9c0.2-0.6,0.7-0.9,1.2-0.9c0.6,0,1.2,0.4,1.2,1.1c0,0.1,0,0.3-0.1,0.5
		c-0.2,0.6-0.4,1.1-0.7,1.7h5.1V15.8z M126,9.4c0.1,0.3,0.2,0.5,0.2,0.7c0,0.7-0.6,1.2-1.1,1.2c-0.4,0-0.8-0.2-1.1-0.7
		c-0.4-0.8-0.8-1.4-1.2-2c-0.2-0.3-0.2-0.5-0.2-0.7c0-0.6,0.5-1,1.1-1c0.3,0,0.7,0.1,1,0.5C125.2,8,125.7,8.7,126,9.4z"/>
</g>
<g class="st0">
	<path class="st2" d="M157.3,14.9c-0.6,0-0.9-0.5-0.9-1c0-0.5,0.3-1,0.9-1h7.8c-0.2-0.1-0.3-0.2-0.4-0.4c-0.4-0.6-0.7-1.1-1.3-1.8
		c-0.2-0.2-0.2-0.4-0.2-0.6c0-0.5,0.5-1,1.1-1c0.3,0,0.7,0.1,1,0.5c0.4,0.5,1,1.2,1.4,1.8c0.2,0.2,0.2,0.5,0.2,0.7
		c0,0.4-0.2,0.7-0.5,0.9h5c0.7-1,1.3-2,1.8-3.1c0.2-0.5,0.7-0.7,1.1-0.7c0.6,0,1.2,0.4,1.2,1c0,0.2,0,0.4-0.2,0.6
		c-0.5,0.9-1,1.6-1.4,2.3h8.2c0.6,0,1,0.5,1,1c0,0.5-0.3,1-1,1h-11.5v2.2h8.7c0.6,0,1,0.5,1,1c0,0.5-0.3,1-1,1h-8.7v2.3h12.1
		c0.7,0,1,0.5,1,1c0,0.5-0.3,1-1,1h-10.7c3.3,2.4,7.8,4.4,11.8,5.4c0.7,0.2,1.1,0.7,1.1,1.2c0,0.6-0.4,1.1-1.1,1.1
		c-0.2,0-0.3,0-0.5-0.1c-4.4-1.2-9.3-3.7-12.7-6.6l0.1,3.7v3.2c0,0.7-0.6,1-1.1,1c-0.6,0-1.2-0.4-1.2-1V28l0.1-3.5
		c-3.4,3-8.1,5.3-12.5,6.8c-0.1,0-0.3,0.1-0.4,0.1c-0.7,0-1.1-0.5-1.1-1c0-0.4,0.3-0.9,0.9-1.1c4.2-1.3,8.6-3.6,11.5-5.9h-10.4
		c-0.6,0-0.9-0.5-0.9-1c0-0.5,0.3-1,0.9-1h11.9v-2.3h-8.5c-0.6,0-0.9-0.5-0.9-1c0-0.5,0.3-1,0.9-1h8.5v-2.2H157.3z M183,6.9
		c0.6,0,1,0.5,1,1c0,0.5-0.3,1-1,1h-27.3c-0.6,0-0.9-0.5-0.9-1c0-0.5,0.3-1,0.9-1h9.5V2.1c0-0.7,0.6-1,1.1-1s1.1,0.3,1.1,1v4.8h3.5
		V2.1c0-0.7,0.6-1,1.1-1c0.6,0,1.1,0.3,1.1,1v4.8H183z M162.9,4.8c0.2,0.3,0.2,0.5,0.2,0.7c0,0.6-0.6,1.1-1.1,1.1
		c-0.4,0-0.8-0.2-1-0.6c-0.5-0.9-1-1.6-1.5-2.2c-0.2-0.3-0.3-0.5-0.3-0.8c0-0.6,0.5-1,1.1-1c0.3,0,0.7,0.1,1,0.5
		C161.8,3.2,162.4,4.1,162.9,4.8z M178.3,1.9c0.6,0,1.1,0.5,1.1,1.1c0,0.2,0,0.4-0.2,0.6c-0.5,0.9-1.1,1.8-1.8,2.7
		c-0.3,0.4-0.7,0.5-1,0.5c-0.5,0-1-0.4-1-0.9c0-0.2,0.1-0.5,0.3-0.7c0.6-0.8,1.1-1.6,1.6-2.5C177.5,2.1,177.9,1.9,178.3,1.9z"/>
</g>
<g class="st0">
	<path class="st2" d="M196.3,16.3c-0.3,0.2-0.5,0.2-0.8,0.2c-0.7,0-1.1-0.5-1.1-1.1c0-0.4,0.2-0.8,0.7-1.1c5.3-3,10.5-7.8,13.8-12.6
		c0.3-0.4,0.7-0.6,1.1-0.6c0.6,0,1.1,0.4,1.1,1c0,0.2,0,0.3-0.1,0.5c3.4,4.6,8.4,8.6,13.3,10.9c0.7,0.3,1,0.8,1,1.3
		c0,0.6-0.5,1.2-1.3,1.2c-0.2,0-0.5-0.1-0.7-0.2c-4.9-2.3-10.2-6.8-13.5-11.4C206.5,8.9,201.4,13.4,196.3,16.3z M197.8,21.3
		c-0.7,0-1.1-0.5-1.1-1.1c0-0.5,0.4-1.1,1.1-1.1H222c0.7,0,1.1,0.5,1.1,1.1c0,0.5-0.4,1.1-1.1,1.1h-13.7c-1.2,2.4-2.5,4.7-4,6.9
		c3.8-0.2,7.5-0.6,11.2-1.2c-0.8-0.8-1.5-1.5-2.4-2.2c-0.3-0.3-0.4-0.6-0.4-0.8c0-0.5,0.5-1,1.1-1c0.3,0,0.6,0.1,0.9,0.3
		c2.2,1.7,4.3,3.9,6.2,6.1c0.3,0.3,0.4,0.6,0.4,0.9c0,0.7-0.6,1.2-1.2,1.2c-0.4,0-0.8-0.2-1.1-0.6c-0.6-0.8-1.2-1.5-1.8-2.2
		c-5.8,1.2-12,1.8-18.3,2.1c-0.8,0-1.3-0.6-1.3-1.2c0-0.5,0.4-1.1,1.2-1.1c0.9,0,1.8-0.1,2.6-0.1c1.6-2.2,3-4.6,4.3-7H197.8z
		 M215.7,13.2c0.7,0,1.1,0.5,1.1,1.1s-0.4,1.1-1.1,1.1h-12.1c-0.7,0-1.1-0.5-1.1-1.1s0.4-1.1,1.1-1.1H215.7z"/>
</g>
<g class="st0">
	<path class="st3" d="M3.8,14.5h0.5v3.4H3.8v-2.7l-1,1.3H2.6l-1.1-1.3v2.7H1.1v-3.4h0.5l1.1,1.4L3.8,14.5z"/>
</g>
<g class="st0">
	<path class="st3" d="M8.9,14.5h0.5v3.4H8.9V14.5z"/>
	<path class="st3" d="M16.8,14.5h0.5v3.4h-0.4l-2.3-2.6v2.6h-0.5v-3.4h0.4l2.3,2.6V14.5z"/>
</g>
<g class="st0">
	<path class="st3" d="M23,14.5h0.3l1.5,3.4h-0.5l-0.5-1h-1.5l-0.4,1h-0.5L23,14.5z M23.7,16.5l-0.6-1.2l-0.5,1.2H23.7z"/>
</g>
<g class="st0">
	<path class="st3" d="M28.5,14.5h2.8v0.4h-1.2v3h-0.5v-3h-1.2V14.5z"/>
</g>
<g class="st0">
	<path class="st3" d="M37.2,14.5c0.5,0,1,0.2,1.3,0.5s0.5,0.8,0.5,1.3s-0.2,0.9-0.5,1.2c-0.4,0.3-0.8,0.5-1.3,0.5
		c-0.5,0-0.9-0.2-1.3-0.5c-0.3-0.3-0.5-0.7-0.5-1.2c0-0.5,0.2-0.9,0.5-1.3S36.7,14.5,37.2,14.5z M37.2,14.9c-0.4,0-0.7,0.1-1,0.4
		c-0.3,0.2-0.4,0.6-0.4,0.9c0,0.4,0.1,0.7,0.4,0.9s0.6,0.4,0.9,0.4c0.4,0,0.7-0.1,1-0.4c0.3-0.2,0.4-0.6,0.4-0.9
		c0-0.4-0.1-0.7-0.4-0.9C37.9,15,37.6,14.9,37.2,14.9z"/>
</g>
<g class="st0">
	<path class="st3" d="M1.1,20.5h0.5v3.4H1.1V20.5z"/>
</g>
<g class="st0">
	<path class="st3" d="M9,20.5h0.5v3.4H9l-2.3-2.6v2.6H6.3v-3.4h0.4L9,23.2V20.5z"/>
</g>
<g class="st0">
	<path class="st3" d="M14.1,23.9v-3.4h1.1c0.5,0,0.8,0.1,1.1,0.2c0.3,0.1,0.5,0.3,0.6,0.6s0.2,0.6,0.2,0.9c0,0.2,0,0.4-0.1,0.7
		s-0.2,0.4-0.4,0.5c-0.2,0.2-0.4,0.3-0.6,0.4c-0.1,0.1-0.2,0.1-0.4,0.1c-0.1,0-0.3,0-0.6,0H14.1z M15.2,20.9h-0.6v2.5h0.6
		c0.2,0,0.4,0,0.6,0s0.2-0.1,0.3-0.1c0.1-0.1,0.2-0.1,0.2-0.2c0.2-0.2,0.4-0.6,0.4-0.9c0-0.4-0.1-0.7-0.4-0.9
		c-0.1-0.1-0.2-0.2-0.3-0.2C15.9,21,15.8,21,15.7,21S15.4,20.9,15.2,20.9z"/>
</g>
<g class="st0">
	<path class="st3" d="M24.1,20.5h0.5v1.9c0,0.3,0,0.5-0.1,0.6c0,0.1-0.1,0.2-0.1,0.3c-0.1,0.1-0.1,0.2-0.2,0.2
		c-0.3,0.2-0.6,0.3-1.1,0.3c-0.4,0-0.8-0.1-1.1-0.3c-0.1-0.1-0.1-0.2-0.2-0.2c-0.1-0.1-0.1-0.2-0.1-0.3c0-0.1-0.1-0.3-0.1-0.6v-1.9
		h0.5v1.9c0,0.3,0,0.5,0.1,0.7s0.2,0.2,0.3,0.3c0.1,0.1,0.3,0.1,0.5,0.1c0.3,0,0.5-0.1,0.7-0.2c0.1-0.1,0.2-0.2,0.2-0.3
		c0-0.1,0.1-0.3,0.1-0.6V20.5z"/>
</g>
<g class="st0">
	<path class="st3" d="M30.1,22.5l-0.4-0.2c-0.2-0.1-0.4-0.3-0.5-0.4c-0.1-0.1-0.1-0.3-0.1-0.5c0-0.3,0.1-0.5,0.3-0.7
		c0.2-0.2,0.4-0.3,0.7-0.3c0.3,0,0.5,0.1,0.8,0.2v0.6c-0.2-0.2-0.5-0.4-0.8-0.4c-0.2,0-0.3,0-0.4,0.1c-0.1,0.1-0.2,0.2-0.2,0.3
		c0,0.1,0,0.2,0.1,0.3c0.1,0.1,0.2,0.2,0.4,0.3l0.4,0.2c0.4,0.2,0.6,0.6,0.6,0.9c0,0.3-0.1,0.5-0.3,0.7C30.5,23.9,30.3,24,30,24
		c-0.3,0-0.6-0.1-0.9-0.3V23c0.3,0.3,0.6,0.5,0.9,0.5c0.2,0,0.3,0,0.4-0.1c0.1-0.1,0.2-0.2,0.2-0.3C30.5,22.9,30.4,22.7,30.1,22.5z"
		/>
</g>
<g class="st0">
	<path class="st3" d="M35.1,20.5H38v0.4h-1.2v3h-0.5v-3h-1.2V20.5z"/>
</g>
<g class="st0">
	<path class="st3" d="M42.3,23.9v-3.4h0.9c0.3,0,0.6,0.1,0.8,0.3c0.2,0.2,0.3,0.4,0.3,0.7c0,0.2,0,0.4-0.1,0.5
		c-0.1,0.1-0.2,0.3-0.4,0.3c0.1,0.1,0.2,0.2,0.3,0.3s0.3,0.3,0.4,0.6c0.1,0.2,0.2,0.3,0.3,0.4l0.2,0.2h-0.6l-0.1-0.2c0,0,0,0,0,0
		l-0.1-0.1L44,23.3L43.8,23c-0.1-0.1-0.2-0.3-0.3-0.3c-0.1-0.1-0.2-0.1-0.2-0.2c-0.1,0-0.2-0.1-0.3-0.1h-0.1v1.5H42.3z M43,20.9
		h-0.1V22H43c0.2,0,0.4,0,0.5-0.1c0.1,0,0.2-0.1,0.2-0.2c0.1-0.1,0.1-0.2,0.1-0.3c0-0.1,0-0.2-0.1-0.3S43.6,21,43.5,21
		C43.4,20.9,43.2,20.9,43,20.9z"/>
	<path class="st3" d="M49.2,20.5h0.5v3.4h-0.5V20.5z"/>
	<path class="st3" d="M55.5,20.5h0.3l1.5,3.4h-0.5l-0.5-1h-1.5l-0.4,1H54L55.5,20.5z M56.2,22.5l-0.6-1.2l-0.5,1.2H56.2z"/>
</g>
<g class="st0">
	<path class="st3" d="M61.6,20.5h0.5v3h1.5v0.4h-2V20.5z"/>
</g>
<g class="st0">
	<path class="st3" d="M1.9,28.5l-0.4-0.2c-0.2-0.1-0.4-0.3-0.5-0.4c-0.1-0.1-0.1-0.3-0.1-0.5c0-0.3,0.1-0.5,0.3-0.7
		c0.2-0.2,0.4-0.3,0.7-0.3c0.3,0,0.5,0.1,0.8,0.2v0.6c-0.2-0.2-0.5-0.4-0.8-0.4c-0.2,0-0.3,0-0.4,0.1c-0.1,0.1-0.2,0.2-0.2,0.3
		c0,0.1,0,0.2,0.1,0.3c0.1,0.1,0.2,0.2,0.4,0.3l0.4,0.2c0.4,0.2,0.6,0.6,0.6,0.9c0,0.3-0.1,0.5-0.3,0.7C2.4,29.9,2.1,30,1.8,30
		c-0.3,0-0.6-0.1-0.9-0.3V29c0.3,0.3,0.6,0.5,0.9,0.5c0.2,0,0.3,0,0.4-0.1c0.1-0.1,0.2-0.2,0.2-0.3C2.4,28.9,2.2,28.7,1.9,28.5z"/>
</g>
<g class="st0">
	<path class="st3" d="M8.9,26.5c0.5,0,1,0.2,1.3,0.5s0.5,0.8,0.5,1.3s-0.2,0.9-0.5,1.2C9.9,29.8,9.4,30,8.9,30
		c-0.5,0-0.9-0.2-1.3-0.5c-0.3-0.3-0.5-0.7-0.5-1.2c0-0.5,0.2-0.9,0.5-1.3S8.4,26.5,8.9,26.5z M8.9,26.9c-0.4,0-0.7,0.1-1,0.4
		c-0.3,0.2-0.4,0.6-0.4,0.9c0,0.4,0.1,0.7,0.4,0.9s0.6,0.4,0.9,0.4c0.4,0,0.7-0.1,1-0.4c0.3-0.2,0.4-0.6,0.4-0.9
		c0-0.4-0.1-0.7-0.4-0.9C9.6,27,9.3,26.9,8.9,26.9z"/>
</g>
<g class="st0">
	<path class="st3" d="M18.2,29.1v0.5c-0.4,0.2-0.8,0.3-1.2,0.3c-0.4,0-0.7-0.1-1-0.2s-0.5-0.4-0.6-0.6c-0.2-0.3-0.2-0.6-0.2-0.9
		c0-0.5,0.2-0.9,0.5-1.3c0.4-0.3,0.8-0.5,1.3-0.5c0.4,0,0.8,0.1,1.2,0.3v0.5c-0.4-0.2-0.8-0.3-1.2-0.3c-0.4,0-0.7,0.1-1,0.4
		c-0.3,0.2-0.4,0.6-0.4,0.9c0,0.4,0.1,0.7,0.4,0.9s0.6,0.4,1,0.4C17.4,29.5,17.8,29.4,18.2,29.1z"/>
	<path class="st3" d="M22.7,26.5h0.5v3.4h-0.5V26.5z"/>
</g>
<g class="st0">
	<path class="st3" d="M27.9,26.5h1.9v0.4h-1.4v1h1.4v0.4h-1.4v1.1h1.5v0.4h-2V26.5z"/>
</g>
<g class="st0">
	<path class="st3" d="M34,26.5h2.8v0.4h-1.2v3h-0.5v-3H34V26.5z"/>
</g>
<g class="st0">
	<path class="st3" d="M43.4,26.5H44l-1.3,1.6v1.8h-0.5v-1.8L41,26.5h0.6l0.9,1.2L43.4,26.5z"/>
</g>
</svg>
